# xmcd
#
# Track frame offsets:
#	150
#	17779
#	34550
#	52416
#	65755
#	83239
#	104172
#	120260
#	137370
#	155379
#	176704
#	191007
#	207166
#	229328
#
# Disc length: 3355 seconds
# Revision: 7
# Processed by: cddbd v1.5.2PL0 Copyright (c) Steve Scherf et al.
# Submitted via: dBpowerAMP V12.0
#
DISCID=c50d190e
DTITLE=Gary Allan - Get Off On The Pain
DYEAR=2010
DGENRE=Country
TTITLE0=Get Off On The Pain
TTITLE1=I Think I've Had Enough
TTITLE2=Today
TTITLE3=That Ain't Gonna Fly
TTITLE4=Kiss Me When I'm Down
TTITLE5=We Fly by Night
TTITLE6=When You Give Yourself Away
TTITLE7=Along The Way
TTITLE8=She Gets Me
TTITLE9=No Regrets
TTITLE10=Long Summer Days
TTITLE11=Right Where I Need To Be [Live From The House Of Blues Chicago 2009]
TTITLE12=Best I Ever Had [Live From The House Of Blues Chicago 2009]
TTITLE13=Watching Airplanes [Live From The House Of Blues Chicago 2009]
EXTD=
EXTT0=
EXTT1=
EXTT2=
EXTT3=
EXTT4=
EXTT5=
EXTT6=
EXTT7=
EXTT8=
EXTT9=
EXTT10=
EXTT11=
EXTT12=
EXTT13=
PLAYORDER=
